<?xml version="1.0" encoding="UTF-8"?>
<svg xmlns="http://www.w3.org/2000/svg" xmlns:xlink="http://www.w3.org/1999/xlink" width="360px" height="360px" viewBox="0 0 360 360">
<path fill="none" stroke-width="13" stroke-linecap="round" stroke-linejoin="round" stroke="rgb(15.686275%, 20%, 18.82353%)" stroke-opacity="1" stroke-miterlimit="10" d="M 100 100 L 260 100 "/>
<path fill="none" stroke-width="13" stroke-linecap="round" stroke-linejoin="round" stroke="rgb(84.705883%, 40.784311%, 18.823528%)" stroke-opacity="1" stroke-miterlimit="10" d="M 100 100 L 260 100 "/>
<path fill="none" stroke-width="13" stroke-linecap="round" stroke-linejoin="round" stroke="rgb(84.705883%, 40.784311%, 18.823528%)" stroke-opacity="1" stroke-miterlimit="10" d="M 100 100 L 100 260 "/>
<path fill="none" stroke-width="13" stroke-linecap="round" stroke-linejoin="round" stroke="rgb(84.705883%, 40.784311%, 18.823528%)" stroke-opacity="1" stroke-miterlimit="10" d="M 100 260 L 260 260 "/>
<path fill="none" stroke-width="13" stroke-linecap="round" stroke-linejoin="round" stroke="rgb(84.705883%, 40.784311%, 18.823528%)" stroke-opacity="1" stroke-miterlimit="10" d="M 260 100 L 340 20 "/>
<path fill="none" stroke-width="13" stroke-linecap="round" stroke-linejoin="round" stroke="rgb(84.705883%, 40.784311%, 18.823528%)" stroke-opacity="1" stroke-miterlimit="10" d="M 260 260 L 340 180 "/>
<path fill="none" stroke-width="13" stroke-linecap="round" stroke-linejoin="round" stroke="rgb(84.705883%, 40.784311%, 18.823528%)" stroke-opacity="1" stroke-miterlimit="10" d="M 340 20 L 180 20 "/>
<path fill="none" stroke-width="13" stroke-linecap="round" stroke-linejoin="round" stroke="rgb(84.705883%, 40.784311%, 18.823528%)" stroke-opacity="1" stroke-miterlimit="10" d="M 340 180 L 340 340 "/>
<path fill="none" stroke-width="13" stroke-linecap="round" stroke-linejoin="round" stroke="rgb(84.705883%, 40.784311%, 18.823528%)" stroke-opacity="1" stroke-miterlimit="10" d="M 100 320 L 120 300 L 120 320 "/>
<path fill="none" stroke-width="13" stroke-linecap="round" stroke-linejoin="round" stroke="rgb(84.705883%, 40.784311%, 18.823528%)" stroke-opacity="1" stroke-miterlimit="10" d="M 140 320 L 140 300 L 160 300 "/>
<path fill="none" stroke-width="13" stroke-linecap="round" stroke-linejoin="round" stroke="rgb(84.705883%, 40.784311%, 18.823528%)" stroke-opacity="1" stroke-miterlimit="10" d="M 180 300 L 180 320 "/>
<path fill="none" stroke-width="13" stroke-linecap="round" stroke-linejoin="round" stroke="rgb(84.705883%, 40.784311%, 18.823528%)" stroke-opacity="1" stroke-miterlimit="10" d="M 200 320 L 220 320 L 200 300 L 220 300 "/>
<path fill="none" stroke-width="13" stroke-linecap="round" stroke-linejoin="round" stroke="rgb(84.705883%, 40.784311%, 18.823528%)" stroke-opacity="1" stroke-miterlimit="10" d="M 260 320 L 260 300 L 240 300 "/>
<path fill="none" stroke-width="13" stroke-linecap="round" stroke-linejoin="round" stroke="rgb(84.705883%, 40.784311%, 18.823528%)" stroke-opacity="1" stroke-miterlimit="10" d="M 280 300 L 300 300 L 300 320 L 280 320 L 280 300 "/>
<path fill="none" stroke-width="13" stroke-linecap="round" stroke-linejoin="round" stroke="rgb(84.705883%, 40.784311%, 18.823528%)" stroke-opacity="1" stroke-miterlimit="10" d="M 180 20 L 300 40 L 260 80 L 100 100 "/>
<path fill="none" stroke-width="13" stroke-linecap="round" stroke-linejoin="round" stroke="rgb(84.705883%, 40.784311%, 18.823528%)" stroke-opacity="1" stroke-miterlimit="10" d="M 260 260 L 320 220 L 340 340 "/>
<path fill="none" stroke-width="13" stroke-linecap="round" stroke-linejoin="round" stroke="rgb(84.705883%, 40.784311%, 18.823528%)" stroke-opacity="1" stroke-miterlimit="10" d="M 320 20 L 260 100 L 180 100 L 280 80 L 240 100 "/>
<path fill="none" stroke-width="13" stroke-linecap="round" stroke-linejoin="round" stroke="rgb(84.705883%, 40.784311%, 18.823528%)" stroke-opacity="1" stroke-miterlimit="10" d="M 240 20 L 320 40 L 320 20 L 280 20 L 320 40 "/>
<path fill="none" stroke-width="13" stroke-linecap="round" stroke-linejoin="round" stroke="rgb(84.705883%, 40.784311%, 18.823528%)" stroke-opacity="1" stroke-miterlimit="10" d="M 340 20 L 180 20 L 300 40 "/>
<path fill="none" stroke-width="13" stroke-linecap="round" stroke-linejoin="round" stroke="rgb(84.705883%, 40.784311%, 18.823528%)" stroke-opacity="1" stroke-miterlimit="10" d="M 340 180 L 340 280 L 320 200 L 340 200 L 320 220 L 340 220 "/>
<path fill="none" stroke-width="13" stroke-linecap="round" stroke-linejoin="round" stroke="rgb(84.705883%, 40.784311%, 18.823528%)" stroke-opacity="1" stroke-miterlimit="10" d="M 300 220 L 340 200 "/>
</svg>
